<svg id="Layer_1" data-name="Layer 1" xmlns="http://www.w3.org/2000/svg" xmlns:xlink="http://www.w3.org/1999/xlink" viewBox="0 0 489.77 398.98"><defs><style>.cls-1{fill:none;}.cls-2{clip-path:url(#clip-path);}.cls-3,.cls-4{fill:#f1e136;}.cls-3{isolation:isolate;opacity:0.1;}.cls-5{fill:#07064a;fill-rule:evenodd;}.cls-6{fill:#f71273;}</style><clipPath id="clip-path" transform="translate(0 -38.75)"><rect class="cls-1" width="527.71" height="437.73"/></clipPath></defs><g class="cls-2"><path class="cls-3" d="M101.43,320.46l.1-.1s0,.05,0,.07A.07.07,0,0,1,101.43,320.46Zm10.08-149.22a4,4,0,0,1-.51-.36l.07,0c.15.12.29.27.44.39Z" transform="translate(0 -38.75)"/><path class="cls-4" d="M248.81,388.71c.12,2.53-.81,5.16-.48,5.23s1.06-2.16,1.65-5,.8-5.12.48-5.22c-1.2-.38-1.79,2.1-1.65,5ZM219,349.41c1.13-4.34,6.45-15.52,5.94-15.81s-5.32,10.32-7.8,14.77-4.06,8.24-3.58,8.57C215.4,358.22,217.72,354.34,219,349.41Zm-108.47-177c-2.12-.28-7.58-2.3-7.72-2s5,2.09,7.21,3.09,4,1.57,4.19,1.28c.62-1.1-1.28-2.06-3.68-2.37ZM23.57,383C17.72,388-.34,400,0,400.54S17.18,389.64,24.82,385s13.48-8.78,13.23-9.4c-1-2.35-7.82,1.62-14.48,7.34Zm57.89-71.6c-3.06,2.21-12.38,7.34-12.23,7.63s8.83-4.63,12.76-6.57,6.94-3.75,6.84-4.06c-.38-1.19-3.89.47-7.37,3Zm43.61-9.25c-.92,1.15-4.1,3.24-4,3.53s3.09-1.77,4.48-2.47,2.4-1.48,2.27-1.78c-.48-1.13-1.76-.58-2.79.72ZM102,313.71c-.91,1.15-4.1,3.23-4,3.53s3.09-1.78,4.48-2.47,2.4-1.49,2.27-1.79c-.48-1.13-1.75-.58-2.79.73Zm-47.52,6.23c-3.27,1.88-13.07,6-13,6.31s9.27-3.68,13.38-5.2,7.29-3,7.23-3.32c-.25-1.22-3.92.06-7.65,2.21Zm-2.19,61.2c-2.65,2.71-11,9.33-10.77,9.59s7.93-6.05,11.47-8.63,6.21-4.87,6.06-5.16c-.57-1.1-3.75,1.13-6.76,4.2ZM144,352.07c-2.85,3.73-12.11,13.13-11.83,13.43S141,356.85,145,353.14s6.92-6.92,6.69-7.26c-.87-1.28-4.45,1.95-7.7,6.19Zm24.58-227.78c-2.35-2.66-7.36-11.1-7.78-10.89s4.45,8,6.27,11.66,3.64,6.3,4.07,6.14c1.64-.64.12-3.88-2.56-6.91Zm-12.08-22.85c-1-1.83-7.11-10.32-7.33-10.19s4.63,7.32,6.23,10.23c2.16,3.92,4.81,8.43,5.06,8.34,0,0-2.58-5.93-4-8.38Zm-31.77,13.93c-2.07-3-11.34-18.53-11.1-18.69s8.17,12.63,11.48,17.35c4.48,6.37,9.57,13.9,9.37,14.11,0,0-7-8.75-9.75-12.77Zm.56,16.47c-1.44-1.74-8-10.88-7.81-11s5.7,7.4,8,10.14c3.1,3.71,6.63,8.1,6.52,8.25S127.2,134.19,125.27,131.84Zm260.88,86.21c2.41-2,11.49-5.54,11.33-5.91s-8.81,3-12,4.52-4.05,3.51-3.92,3.9c.5,1.46,1.87-.27,4.61-2.51Zm19.58-.63c-2.76.56-10.29,5.08-10.48,4.72s7-4.64,9.8-6.11,4.8-.82,5-.48C410.9,216.84,408.86,216.77,405.73,217.42ZM273.81,376.67c-.72-1.28-1-4.7-1.41-4.75s-.06,3.18-.21,4.56.08,2.53.53,2.6C274.4,379.33,274.63,378.12,273.81,376.67Zm59.05-94.9c-1.29-.7-3.3-3.48-3.71-3.29s1.63,2.73,2.23,4,1.4,2.1,1.82,1.93c1.56-.68,1.12-1.83-.35-2.63Zm138.65-86.15c0,3-.68,5.06-3.65,5.06s-7.07-2.1-7.07-5.06.81-5.09,3.77-5.09S471.51,192.66,471.51,195.62ZM489,145.44c.87,1.13,1.22,2.13.09,3s-3.31,1.27-4.17.14-1.18-2.18-.05-3,3.27-1.22,4.13-.09ZM391,94.33c1.61.8,2.55,1.75,1.74,3.4s-3.1,3.38-4.7,2.59-2.55-1.82-1.73-3.48S389.43,93.54,391,94.33Z" transform="translate(0 -38.75)"/><path class="cls-4" d="M402.77,184.26c12.82-3.4,21.55-7.06,25.41-7.42s35.72-2.8,33.84-4c-1.14-.94-17.07,1.25-33.29,2.21-10,.58-13.14-2.62-18.08-2.21-1,.07,3.64-5.5,8.56-9,6.24-4.41,12.94-6.91,9.13-6.24a37.89,37.89,0,0,0-11.83,5.62c-1.4,1-15.69,6-19,8.22s-8.82,4.94-11.06,4.6c-13-2-6.17-7.13-8.75-11.81-3-5.47,2.79-10.51,6.55-12.85,109.26-67.31-2.7.61-2.7-8.41,0-7,36.9-31.5,38.49-34.71s-31.35,23-35.11,22.11c-3.38-.82,21.52-18.78,20.6-21.45-.81-2.44-16,15.61-20.6,9-1.93-2.77-5.88-.43-8.46-.6-23.72-1.47,25.86-44.91,33-53.29.27,1,1.38,1.71,2.87,2.19,2.07.67,4.39-1.42,5-3.28s-.72-2.75-2.8-3.42-4.36,1.32-5,3.18l-.07.29c-3.83,2.84-20.61,20.85-32.54,32.42a5,5,0,0,0-1.54-1.09c-1.62-.79-3.88.87-4.7,2.51s-.05,2.48,1.3,3.23c-4,3.69-6.82,5.81-7.35,5-1.81-2.63.33-8.85.19-11-.31-4.94,10.51-1.59,10.63-4.46.19-5.2-12.68-4.87-16-7-7.44-4.85-9.23-16.13-19-16.13-5.95,0-20.8,13.11-27.28,18.92-3.59,3.18-8.27,5.84-12,2.1-6.85-2.36,13.54-17.43,21.5-23.74a8,8,0,0,0,3.47.31c2-.26,2.31-1.23,2.14-2.53s-3-1.85-4.94-1.59-2.39,1.25-2.22,2.53a1.27,1.27,0,0,0,.56.82c-8,5.38-25.53,18.61-28.54,24.2-4.82,8.94-7.81,6.58-11,11.55-2.78,4.29-1.81,9-9.84,7.8s-7.45.68-12.82,4.8c-5.21,4-9,1.62-14,3.81-2.79,1.25-.48,4.17-3.3,5.11-4.19,1.42-9.28,3-13.33,3.33-5.81.38-5.47-16.54-7.66-21.14a203.27,203.27,0,0,1-8-19.36c-1.71-5.23-1.47-10.8-4-14.82-4.34-6.87-9.45-33.6-10.82-29.45s11.83,36.9,11.81,38.46c1.61,7.43-1.62,2.75-2.19,6.83-.44,3,1,10,.43,12.84a53.06,53.06,0,0,0-1.25,9.4c.21,6.17,2,12-3.59,12.82s-3.48-2.72-5.81-9-7.64-8.29-9.43-14.63c-1.61-5.76-4.19-15.45-8-24.46-1.38-3.23-9.26-27.19-12-30.25-2.21-2.44,6.7,25.88,9.81,34.27,4.05,10.92-.24,17.16,2.32,21.28,3.15,5.11,16.48,28.44,12.07,28.71s-13.81-20-14.44-18.29c.05.89,9.5,19.4,5.4,16.84s-20.27-27.3-20.27-27.3c.1,2.6,11.72,24.36,17.72,29.45,3.25,2.75,14.29,20.94,10.58,23.4s-17.5-2.67-22.46-13.37c-7.09-15.33-31.8-58.45-35.24-61.42s5.69,18.34,4.75,20.32c-.82,1.71-2.78-.43-4.51,0s9.38,17.21,7.21,20c-.87,1.11-1.84-.48-2.29.79-1.21,3.35-.73,10.41,3.23,15.31,10.7,13.23,2.53,20.65-11.86,12.58-8-4.48,5,3.95,9.33,9.88,3.22,4.44-3.19,7.09-2.8,7.93,1.83,4,19,15.47,6.6,15.64-9.28.15-27-2.26-27.64-1.13s14.22,10.08,17.81,17.84c1.45,3.06-12.65-4.58-11.47-3.35,1.59,1.68,24.1,10.82,23.16,16-.56,3.19-2.07,2.78-2.6,4.9-.15.58.62,2.12,1.61,3.9.7,1.26-5.45.58-4.75,1.83,1,1.79,8.68,5.4,8.49,6-.53,1.68-9.23-1.09-9.21.74,0,.73,8.68,8.63,11,13.16,1.07,2.08-3.88,3.81-3.88,6.29,0,4.56,4.15,5.72,4.95,8.46,1,3.35-4.42,8-3.6,9.09,1.55,2.15,6.17-2.55,8.15,3.13,2.34,6.82-1.73,7-2.6,9.09-.77,1.88-.48,5.52-1,5.76-1.69.75-4.73.94-6.49,5.88s1.33,5.23-2.14,8.87c-1.43,1.5-17.41,13.33-34.18,27.91-23.84,20.75-50.47,45.94-49.36,45.36,2.89-1.56,27.71-22.12,44.73-31.19,11.47-6.12,10.78-13.52,35.43-26.05,7.35-3.71,35.46-21,36.71-6.53,1.11,12.43-16.05,28.51-11.93,24.94s17.06-20.34,24.75-22.94c15.16-5.14,5.52,3.54,14.37,2.79s15.88-2.33,18.24-2.41c25.05-.86-4.74,6.42-1.54,9.36,12,.26,6.8,6.58,9.35,7.49,5.26,1.83,12-6.14,10.82,10.75-.28,4.1,10.56,36.49,9.62,41.67s.77,1.72,2.53.41c4.41-3.25,4.08,45.49,11.93,62.36,1.38,2.89-5.28-36.95-4.65-37.51-.19-2.77.34-7.2-.41-10.55-3.37-14.9-8.58-28.76-5.61-31.36,5-4.41,11.52,38.95,13.25,38.11S254.9,335.05,253,329.89s-1.73-12.75,3.47-14.42c4.27-1.37,1.33,16.54,4.53,15.45,0,0-2.67-22.7,7-16.55,1,.67-2.17-8,1.61-8.27,6.15-.56,2.41-7.76,9.64-6.92,11.74,3.71,8.82-2.41,10.37-9.35,1.1-5.11,3.35-4.7,7.49-.31,9.35,9.88,5.79,5.32,13.91,9.08,2.72,1.26,18,22.35,27.76,32.73,19.41,20.64,37.87,36.54,39,33.27,0,0-22-19.09-34.4-33.07-15.35-17.38-26.1-42.76-24.92-47.68C320.1,277,314.72,273,316,270.76c.36-.67,5,1.47,12,6.46,2.36,1.71-1.91-4.77,1.59-5.4,2.55-.45,8.53,6.92,11,6.22s-5.69-6.41-3.62-7.42c1.21-.58,5.88,2.41,8.41.79,1.3-.81-1.18-3.06.2-4,1.95-1.32,16.89,9.89,25.45,13.5,6,2.53-18.22-12.7-18.63-15.5s4-16,41.89-4.6c3.2-.6-12.68-4.31-19.65-9-6.22-4.22-19-7-17-7.24,22.06-2.38,15.84-5.59,28.06-5.59,1.76,0-1-2.62.6-3.42.22-3.9,30.37-2,35.09-3.59,2.8-.94-14.1-1.59-29.76-2,5.16-4,16.15-5.73,15.71-6.24s-10.55-.53-17.5,4.51c-.79.58-1.64,1.11-2.38,1.61h0l-3.42-.07c-1.76,2.41-3.64,3.86-4.53,3.35-2.05-1.16-2.1-2.31-1.37-3.5-5.07-.07-8.95-.14-10.44-.19-13-.31-2.82-6.31-4.41-9.33-2.05-3.83-7.38-5.35-6-5.61,1.54-.29,11.08.53,12.6.6,14.85.82-5.11-5,4.34-5.28,11.69-.33,29.94-10.36,54.38-15.35,9.83-2-30.54,1.71-31.46-1.81-1.83-7,2-7.42,5.69-8.41Zm-263.17.67c-1.21,1.4-6.32,4.1-7.69,2.95s-7-6.46-5.35-7.24c1.27-.57,7.61-.43,9,.73S140.78,183.51,139.6,184.93Zm-.22,120.61c-4.51,2.66-14,10-14.49,9.24s8.39-8.73,12.85-12c3.93-2.89,7.5-6.43,9-3.42C147.14,300.12,143.89,302.89,139.38,305.54ZM193.85,108c.22-.2,1.35,5,3.21,7.35s2.41,4,2.21,4.14c-.79.8-2.26-2.09-3.49-4.79-1.3-2.85-2.17-6.54-1.93-6.7Zm4.43,183.85c-.21.92-.09,2.36-1,2.58a2,2,0,0,1-2.36-1.16c-.22-.94,3.52-6.1,4.41-6.31s-.67,3.13-1,4.89ZM294,95.78c-.43,0-1-2.58-.62-3.57a1.27,1.27,0,0,1,1.83-.82c.7.29.82,1,.41,2S294.6,95.78,294,95.78Zm6,190.58c-1.35-1.33-5.35-4.61-4.21-5.42.31-.22,1.56.86,2.86,2.45s4.7,4.85,4.42,5.07-1.52-.56-3.07-2.1Zm19.05,13.69c.33-.17,1.1.63,1.71,1.78s2.58,3.5,2.24,3.69-1.13-.41-2-1.52C320.32,303,317.88,300.65,319.14,300.05Zm42.34-95.21a.85.85,0,0,1-1.2-.21c-1.45-1.47-.65-1.18-.17-1.21a5.09,5.09,0,0,1,2.58.8C363.07,204.6,361.77,204.58,361.48,204.84Zm1.18-113.5c-.82,1.67-3.1,3.38-4.7,2.58s-2.84-3-2-4.65,3.37-2.12,5-1.32S363.48,89.68,362.66,91.34Zm8.63,78.92a1.64,1.64,0,0,1-1.9-1.14,1.78,1.78,0,0,1,1.23-2c.77-.17,2.6-.77,3.3-.36C374.79,167.29,372.06,170.06,371.29,170.26Zm12.17,30c-2.14,2.05-4.41,3.16-5.08,2.51-2.53-2.48.38-3.45,2.72-5,2.7-1.74,9.21-4.54,9.86-3.86s-5.33,4.24-7.5,6.31Zm13.77-22.65c-2.68-2.32.17-3.45,2.46-5.11,2.57-1.88,8.94-5,9.61-4.36s-5.08,4.53-7.13,6.7S398,178.23,397.23,177.61Z" transform="translate(0 -38.75)"/><path class="cls-4" d="M416.91,205.59c.56.73.79,1.38.06,1.94s-2.16.83-2.72.09-.77-1.41,0-2S416.35,204.85,416.91,205.59Z" transform="translate(0 -38.75)"/><path class="cls-5" d="M234.5,134.21l9.57-1.15,6.47,52.28L241,186.53l-2.45-19.81-8.46,1.82,3.54,13.69-9.33,2.41L219.44,166l-4.6-21.73,9.43-2,3.58,16.9,9.32-2-2.67-22.94Zm-30.15,13.22c3.55,3.23,6.8,8.63,9.65,15.63a56.73,56.73,0,0,1,3.59,11c.54,3.11.45,6.74-2.15,9.63-2.35,2.61-5.86,3.52-9.06,4a98.11,98.11,0,0,1-12.87.58c-6.11,0-11.06-2-14-6.14-2.84-4-3.14-8.89-2.45-13.24,1.37-8.6,7.09-18.16,13.59-23a9.36,9.36,0,0,1,7.27-1.81,12.9,12.9,0,0,1,6.46,3.4Zm-8,6.13c-4.4,3.32-8.85,10.61-9.84,16.83-.49,3.07,0,5,.77,6.12.62.88,2.12,2.1,6.19,2.1a91.05,91.05,0,0,0,11.54-.48,9.15,9.15,0,0,0,3.16-.82,5.74,5.74,0,0,0-.11-1.59,49,49,0,0,0-3-9c-2.65-6.49-5.23-10.33-7.21-12.14a4.58,4.58,0,0,0-1.48-1Zm11.78,23.89a.15.15,0,0,1,0-.06.14.14,0,0,1,0,.06Zm88.34-62.79,3.66,50.52-9.62.7L289,145l-9.32,15-11.14-9.3,4.37,26.77-9.51,1.55-8.55-52.29,22.48,18.75,19.14-30.86ZM312.08,156l-9.17-14.7,8.17-5.11L319,148.84l11.49-6.61,4.81,8.36-13.89,8-4.61,14.78-9.2-2.88L312.08,156Zm25.83,23.91a14.29,14.29,0,0,1,8.27,2L339.55,192l.14.09a4.38,4.38,0,0,0-1.35-.11,6.51,6.51,0,0,0-2.93.77,1.92,1.92,0,0,0-1,1c-.08.3-.3,1.4.76,3.74a49.85,49.85,0,0,0,6.45,10.17c1,1.36,2.11,2.78,3.25,4.4,3.76,5.36,7,11.62,7,21.2,0,5.09-.16,13.93-6.95,20s-18.06,7.69-35.28,4.74l2-11.88c16.49,2.83,22.79.32,25.19-1.83s2.95-5.61,2.95-11.05c0-6.35-1.94-10.23-4.78-14.28-.75-1-1.52-2.1-2.32-3.13a68.44,68.44,0,0,1-8.5-13.42c-1.88-4.17-2.46-8.32-1.31-12.14a13.9,13.9,0,0,1,6.56-8,18.71,18.71,0,0,1,8.48-2.35ZM243.86,207.1c-.37.69-.83,2.27.47,5.36a69.07,69.07,0,0,1,3.77,14.08c1.22.47,3.74,1.06,8.27,1.06,2.2,0,2.94-.58,3.17-.79a4.23,4.23,0,0,0,.94-2.67c.38-3.66-1-9.36-3.74-15.55-1.39-3.08-5.56-4.8-9.61-3.71a5,5,0,0,0-3.27,2.22Zm6.2,32.18a49.77,49.77,0,0,0,6.31.37c4.42,0,8.47-1.23,11.5-4.14a16,16,0,0,0,4.6-10.13c.7-6.84-1.66-14.89-4.74-21.73-4.48-10-15.69-12.57-23.74-10.41a17,17,0,0,0-10.79,8.23c-2.43,4.61-2.33,10.08,0,15.68a63,63,0,0,1,3.28,13.09l0,.1a196.14,196.14,0,0,1,2.86,25.11c.26,8.12-.45,15.29-2.58,21.05l11.3,4.18c2.9-7.83,3.61-16.76,3.32-25.62-.17-5.21-.69-10.53-1.37-15.78Zm-50.21-41.13c7.35,1.74,13.32,6.62,17.63,13.43L207.3,218c-3-4.78-6.58-7.29-10.22-8.15s-8.31-.28-13.92,3a13.35,13.35,0,0,0-4.73,5.67,20.62,20.62,0,0,0-2.13,8.83,9.65,9.65,0,0,0,1.84,6.3c1,1.12,2.72,2.29,6.4,2.29a29.29,29.29,0,0,0,9.4-1.19,16.15,16.15,0,0,0,4.48-2.4l.42-.3a24.58,24.58,0,0,1,6.06-3.38,25.24,25.24,0,0,1,11-1.06c6.24.56,11,4.56,14.06,9.19a33.58,33.58,0,0,1,5.2,16.56c.62,12.07-5,26-21,31-13.16,4.06-25,2.52-34-2-8.72-4.41-15.22-12-16.27-20.37l11.95-1.51c.41,3.23,3.44,7.93,9.76,11.12,6.06,3.07,14.71,4.43,25,1.25,9.35-2.89,12.9-10.71,12.48-18.84a21.55,21.55,0,0,0-3.23-10.54c-1.79-2.71-3.66-3.7-5.07-3.82a13.34,13.34,0,0,0-5.82.4,14.13,14.13,0,0,0-3.39,2l-.24.17a28.13,28.13,0,0,1-7.57,4A41.24,41.24,0,0,1,184.53,248c-6.58,0-11.95-2.28-15.57-6.54a21.57,21.57,0,0,1-4.72-14.12,32.68,32.68,0,0,1,3.38-14.13,25.08,25.08,0,0,1,9.49-10.77c7.59-4.4,15.39-6,22.74-4.29Zm116.22,22.76a11.57,11.57,0,0,0-8.05,4l-1.16,1.82L306,242.3l-12-.65,1.47-27.17,6.63-.52a24.92,24.92,0,0,1,15.51-5.18,9.94,9.94,0,0,1,6.24,2.1,10.61,10.61,0,0,1,3.38,4.88,22.91,22.91,0,0,1,.73,9.87,81.45,81.45,0,0,1-4.71,18.47L312,239.84a69.37,69.37,0,0,0,4-15.48A19.55,19.55,0,0,0,316.07,220.91ZM269.48,249c8.27-13.85,9.5-30.29,9.5-34.22h12c0,5-1.36,23.91-11.2,40.4L269.48,249Z" transform="translate(0 -38.75)"/><path class="cls-6" d="M309.54,187.28c0-.07,0-.14,0-.21,0-.34,0-.68-.1-1a.32.32,0,0,0,0-.12,19.44,19.44,0,0,0-1-4.09,19.12,19.12,0,0,0-1.08-2.34,15.55,15.55,0,0,0-1.23-2l-.53-.72s-.07-.05-.1-.1c-.19-.26-.41-.5-.62-.75s-.62-.68-.94-1c0,0-.05,0-.05-.05-.27-.24-.51-.48-.8-.72l-.24-.22-.65-.53a1.43,1.43,0,0,1-.26-.19c-.29-.22-.61-.43-.89-.63l-.25-.14c-.24-.17-.48-.31-.74-.46-.1-.07-.2-.12-.32-.19s-.53-.29-.82-.44l-.19-.07c-.36-.19-.72-.34-1.08-.5h0l-.07-.05a20,20,0,0,0-7.31-1.4,18.55,18.55,0,0,0-2.58.19v0a.32.32,0,0,1-.14,0c-.31.05-.65.1-1,.17a.54.54,0,0,1-.2,0c-.36.07-.72.16-1.08.26a1.64,1.64,0,0,0-.41.12,7.15,7.15,0,0,0-.7.19l-.43.15c-.27.1-.53.22-.8.31s-.22.07-.31.12c-.32.15-.63.27-.92.41a2.77,2.77,0,0,0-.34.2l-.72.36a2.19,2.19,0,0,1-.29.17,18.48,18.48,0,0,0-1.9,1.27s-.05,0-.05,0a19,19,0,0,0-6.1,7.86.51.51,0,0,0-.05.12c-.09.24-.19.46-.26.7a1,1,0,0,0-.1.21l-.22.66-.07.26c0,.22-.12.41-.17.63l-.07.26-.14.65a.93.93,0,0,1,0,.24c0,.22-.07.46-.12.7a.27.27,0,0,1,0,.15,20.07,20.07,0,0,0-.19,2.7c0,.41,0,.79.05,1.2,0,.07,0,.15,0,.24,0,.32.05.65.1,1a.34.34,0,0,0,0,.14,18.78,18.78,0,0,0,1.33,4.87,19.87,19.87,0,0,0,2.53,4.27.3.3,0,0,0,.1.09l.6.75a1.36,1.36,0,0,1,.17.17c.26.29.53.58.79.84,0,0,0,.05.08.05.24.24.48.48.74.7a2.82,2.82,0,0,0,.29.24,6.37,6.37,0,0,0,.63.51l.26.21.49.37a3.93,3.93,0,0,1,.41.26,2.73,2.73,0,0,1,.24.17l.72.43c.12.08.24.12.34.2l.21.12.56.29a.68.68,0,0,1,.24.12c.49.23,1,.43,1.49.62a19.12,19.12,0,0,0,7,1.3,18.53,18.53,0,0,0,2.61-.19v0a.17.17,0,0,1,.12,0c.33-.05.67-.09,1-.17a.68.68,0,0,1,.19,0c.36-.1.72-.17,1.08-.27a1.64,1.64,0,0,0,.41-.12,6.06,6.06,0,0,0,.7-.19l.44-.14c.26-.1.53-.2.79-.32l.34-.14c.29-.12.6-.24.89-.39l.36-.19.68-.36.31-.17a20.07,20.07,0,0,0,1.88-1.28.1.1,0,0,0,.07,0,19.34,19.34,0,0,0,6.1-7.85c.12-.29.24-.58.34-.85v0c.09-.26.19-.55.29-.81a.56.56,0,0,1,0-.1l.22-.8A1.21,1.21,0,0,1,309,193c0-.24.12-.51.16-.75,0-.07,0-.12,0-.17l.14-.77v-.12c.05-.29.08-.55.12-.82.05-.63.1-1.25.1-1.9,0-.41,0-.8,0-1.21Zm-2.41,1.26c-4.07,3.2-10.84,3.37-16.82,0a.31.31,0,0,1-.05.1c3.49,5.83,9.45,9,14.56,8.24a17,17,0,0,1-6.22,6.1c-4.82-1.86-8.36-7.55-8.44-14.32,0,0,0-.05-.07-.05-3.4,5.91-3.2,12.56.05,16.56a17.07,17.07,0,0,1-8.41-2.22s-.05,0-.07-.05v0c-.78-5,2.48-10.9,8.36-14.3a.47.47,0,0,1-.17-.09c-6.77.09-12.51,3.56-14.39,8.31a16.59,16.59,0,0,1-2.24-8.31v-.05a11.6,11.6,0,0,1,1.45-.94,16.14,16.14,0,0,1,3.27-7.5,9.73,9.73,0,0,0-2.41.08,16.92,16.92,0,0,1,6.22-6.1,11,11,0,0,1,2.24,1.2,17,17,0,0,1,7.16-1.59c.1,0,.17,0,.24,0a9,9,0,0,0-1.18-1.86,16.93,16.93,0,0,1,6.58,1.35,15.37,15.37,0,0,1,1.91.94,8.61,8.61,0,0,1,.09,1c.24,4.77-2.89,10.05-8.34,13.26,0,.05-.07.12-.09.17,6.58-.07,12.12-3.26,14.24-7.69.1-.19.19-.41.29-.63.31.58.63,1.18.89,1.79a16.33,16.33,0,0,1,1.35,6.53v0Z" transform="translate(0 -38.75)"/><path class="cls-6" d="M290.09,188.49h-.24a17.41,17.41,0,0,0-12.41-1.83,13.8,13.8,0,0,1,3.3-5.89A17.4,17.4,0,0,1,290.09,188.49Zm.36-.17c-.07.05-.14.07-.21.12a17.25,17.25,0,0,0-4.17-11.26,14.48,14.48,0,0,1,6.29-.89,16.77,16.77,0,0,1-1.91,12Z" transform="translate(0 -38.75)"/></g></svg>